<svg width="20" height="21" viewBox="0 0 20 21" fill="none" xmlns="http://www.w3.org/2000/svg">
<path d="M18.3333 19.5515H1.66666C1.32499 19.5515 1.04166 19.2682 1.04166 18.9265C1.04166 18.5848 1.32499 18.3015 1.66666 18.3015H18.3333C18.675 18.3015 18.9583 18.5848 18.9583 18.9265C18.9583 19.2682 18.675 19.5515 18.3333 19.5515Z" fill="white"/>
<path d="M17.5 19.5517H2.5C2.15833 19.5517 1.875 19.2683 1.875 18.9267V5.59334C1.875 3.07668 3.31667 1.63501 5.83333 1.63501H14.1667C16.6833 1.63501 18.125 3.07668 18.125 5.59334V18.9267C18.125 19.2683 17.8417 19.5517 17.5 19.5517ZM3.125 18.3017H16.875V5.59334C16.875 3.74334 16.0167 2.88501 14.1667 2.88501H5.83333C3.98333 2.88501 3.125 3.74334 3.125 5.59334V18.3017Z" fill="white"/>
<path d="M8.33334 14.9683H5.83334C5.49168 14.9683 5.20834 14.6849 5.20834 14.3433C5.20834 14.0016 5.49168 13.7183 5.83334 13.7183H8.33334C8.67501 13.7183 8.95834 14.0016 8.95834 14.3433C8.95834 14.6849 8.67501 14.9683 8.33334 14.9683Z" fill="white"/>
<path d="M14.1667 14.9683H11.6667C11.325 14.9683 11.0417 14.6849 11.0417 14.3433C11.0417 14.0016 11.325 13.7183 11.6667 13.7183H14.1667C14.5083 13.7183 14.7917 14.0016 14.7917 14.3433C14.7917 14.6849 14.5083 14.9683 14.1667 14.9683Z" fill="white"/>
<path d="M8.33334 11.2183H5.83334C5.49168 11.2183 5.20834 10.9349 5.20834 10.5933C5.20834 10.2516 5.49168 9.96826 5.83334 9.96826H8.33334C8.67501 9.96826 8.95834 10.2516 8.95834 10.5933C8.95834 10.9349 8.67501 11.2183 8.33334 11.2183Z" fill="white"/>
<path d="M14.1667 11.2183H11.6667C11.325 11.2183 11.0417 10.9349 11.0417 10.5933C11.0417 10.2516 11.325 9.96826 11.6667 9.96826H14.1667C14.5083 9.96826 14.7917 10.2516 14.7917 10.5933C14.7917 10.9349 14.5083 11.2183 14.1667 11.2183Z" fill="white"/>
<path d="M8.33334 7.46826H5.83334C5.49168 7.46826 5.20834 7.18493 5.20834 6.84326C5.20834 6.5016 5.49168 6.21826 5.83334 6.21826H8.33334C8.67501 6.21826 8.95834 6.5016 8.95834 6.84326C8.95834 7.18493 8.67501 7.46826 8.33334 7.46826Z" fill="white"/>
<path d="M14.1667 7.46826H11.6667C11.325 7.46826 11.0417 7.18493 11.0417 6.84326C11.0417 6.5016 11.325 6.21826 11.6667 6.21826H14.1667C14.5083 6.21826 14.7917 6.5016 14.7917 6.84326C14.7917 7.18493 14.5083 7.46826 14.1667 7.46826Z" fill="white"/>
</svg>
