<svg width="88" height="80" viewBox="0 0 88 80" fill="none" xmlns="http://www.w3.org/2000/svg">
<g filter="url(#filter0_d_10744_1592)">
<path d="M24 32C24 20.9543 32.9543 12 44 12C55.0457 12 64 20.9543 64 32C64 43.0457 55.0457 52 44 52C32.9543 52 24 43.0457 24 32Z" fill="url(#paint0_linear_10744_1592)" shape-rendering="crispEdges"/>
<path d="M48.1667 39.7082H39.8333C36.7917 39.7082 35.0417 37.9582 35.0417 34.9165V29.0832C35.0417 26.0415 36.7917 24.2915 39.8333 24.2915H48.1667C51.2083 24.2915 52.9583 26.0415 52.9583 29.0832V34.9165C52.9583 37.9582 51.2083 39.7082 48.1667 39.7082ZM39.8333 25.5415C37.45 25.5415 36.2917 26.6998 36.2917 29.0832V34.9165C36.2917 37.2998 37.45 38.4582 39.8333 38.4582H48.1667C50.55 38.4582 51.7083 37.2998 51.7083 34.9165V29.0832C51.7083 26.6998 50.55 25.5415 48.1667 25.5415H39.8333Z" fill="white"/>
<path d="M43.9998 32.725C43.2998 32.725 42.5915 32.5083 42.0498 32.0666L39.4415 29.9833C39.1748 29.7666 39.1248 29.375 39.3415 29.1083C39.5582 28.8416 39.9498 28.7916 40.2165 29.0083L42.8248 31.0916C43.4581 31.6 44.5331 31.6 45.1665 31.0916L47.7748 29.0083C48.0415 28.7916 48.4415 28.8333 48.6498 29.1083C48.8665 29.375 48.8248 29.775 48.5498 29.9833L45.9415 32.0666C45.4081 32.5083 44.6998 32.725 43.9998 32.725Z" fill="white"/>
</g>
<defs>
<filter id="filter0_d_10744_1592" x="0" y="-8" width="88" height="88" filterUnits="userSpaceOnUse" color-interpolation-filters="sRGB">
<feFlood flood-opacity="0" result="BackgroundImageFix"/>
<feColorMatrix in="SourceAlpha" type="matrix" values="0 0 0 0 0 0 0 0 0 0 0 0 0 0 0 0 0 0 127 0" result="hardAlpha"/>
<feOffset dy="4"/>
<feGaussianBlur stdDeviation="12"/>
<feComposite in2="hardAlpha" operator="out"/>
<feColorMatrix type="matrix" values="0 0 0 0 0.529412 0 0 0 0 0.27451 0 0 0 0 0.921569 0 0 0 0.32 0"/>
<feBlend mode="normal" in2="BackgroundImageFix" result="effect1_dropShadow_10744_1592"/>
<feBlend mode="normal" in="SourceGraphic" in2="effect1_dropShadow_10744_1592" result="shape"/>
</filter>
<linearGradient id="paint0_linear_10744_1592" x1="64" y1="32" x2="24" y2="32" gradientUnits="userSpaceOnUse">
<stop stop-color="#8746EB"/>
<stop offset="1" stop-color="#DC49A6"/>
</linearGradient>
</defs>
</svg>
