    <svg width="20" height="21" viewBox="0 0 20 21" fill="none" xmlns="http://www.w3.org/2000/svg">
<path d="M6.66666 5.38501C6.32499 5.38501 6.04166 5.10168 6.04166 4.76001V2.26001C6.04166 1.91834 6.32499 1.63501 6.66666 1.63501C7.00832 1.63501 7.29166 1.91834 7.29166 2.26001V4.76001C7.29166 5.10168 7.00832 5.38501 6.66666 5.38501Z" fill="white"/>
<path d="M13.3333 5.38501C12.9917 5.38501 12.7083 5.10168 12.7083 4.76001V2.26001C12.7083 1.91834 12.9917 1.63501 13.3333 1.63501C13.675 1.63501 13.9583 1.91834 13.9583 2.26001V4.76001C13.9583 5.10168 13.675 5.38501 13.3333 5.38501Z" fill="white"/>
<path d="M7.08333 12.6767C6.975 12.6767 6.86667 12.6517 6.76667 12.61C6.65833 12.5684 6.575 12.51 6.49167 12.435C6.34167 12.2767 6.25 12.0684 6.25 11.8434C6.25 11.735 6.275 11.6267 6.31667 11.5267C6.35833 11.4267 6.41667 11.335 6.49167 11.2517C6.575 11.1767 6.65833 11.1183 6.76667 11.0767C7.06667 10.9517 7.44167 11.0184 7.675 11.2517C7.825 11.41 7.91667 11.6267 7.91667 11.8434C7.91667 11.8934 7.90833 11.9517 7.9 12.01C7.89167 12.06 7.875 12.11 7.85 12.16C7.83333 12.21 7.80833 12.26 7.775 12.31C7.75 12.3517 7.70833 12.3934 7.675 12.435C7.51667 12.585 7.3 12.6767 7.08333 12.6767Z" fill="white"/>
<path d="M9.99999 12.6765C9.89166 12.6765 9.78332 12.6515 9.68332 12.6098C9.57499 12.5682 9.49166 12.5098 9.40832 12.4348C9.25832 12.2765 9.16666 12.0682 9.16666 11.8432C9.16666 11.7348 9.19166 11.6265 9.23332 11.5265C9.27499 11.4265 9.33332 11.3348 9.40832 11.2515C9.49166 11.1765 9.57499 11.1181 9.68332 11.0765C9.98332 10.9431 10.3583 11.0182 10.5917 11.2515C10.7417 11.4098 10.8333 11.6265 10.8333 11.8432C10.8333 11.8932 10.825 11.9515 10.8167 12.0098C10.8083 12.0598 10.7917 12.1098 10.7667 12.1598C10.75 12.2098 10.725 12.2598 10.6917 12.3098C10.6667 12.3515 10.625 12.3931 10.5917 12.4348C10.4333 12.5848 10.2167 12.6765 9.99999 12.6765Z" fill="white"/>
<path d="M12.9167 12.6765C12.8083 12.6765 12.7 12.6515 12.6 12.6098C12.4917 12.5682 12.4083 12.5098 12.325 12.4348C12.2917 12.3931 12.2583 12.3515 12.225 12.3098C12.1917 12.2598 12.1667 12.2098 12.15 12.1598C12.125 12.1098 12.1083 12.0598 12.1 12.0098C12.0917 11.9515 12.0833 11.8932 12.0833 11.8432C12.0833 11.6265 12.175 11.4098 12.325 11.2515C12.4083 11.1765 12.4917 11.1181 12.6 11.0765C12.9083 10.9431 13.275 11.0182 13.5083 11.2515C13.6583 11.4098 13.75 11.6265 13.75 11.8432C13.75 11.8932 13.7417 11.9515 13.7333 12.0098C13.725 12.0598 13.7083 12.1098 13.6833 12.1598C13.6667 12.2098 13.6417 12.2598 13.6083 12.3098C13.5833 12.3515 13.5417 12.3931 13.5083 12.4348C13.35 12.5848 13.1333 12.6765 12.9167 12.6765Z" fill="white"/>
<path d="M7.08333 15.5933C6.975 15.5933 6.86667 15.5683 6.76667 15.5266C6.66667 15.4849 6.575 15.4266 6.49167 15.3516C6.34167 15.1932 6.25 14.9766 6.25 14.7599C6.25 14.6516 6.275 14.5433 6.31667 14.4433C6.35833 14.3349 6.41667 14.2433 6.49167 14.1683C6.8 13.8599 7.36667 13.8599 7.675 14.1683C7.825 14.3266 7.91667 14.5433 7.91667 14.7599C7.91667 14.9766 7.825 15.1932 7.675 15.3516C7.51667 15.5016 7.3 15.5933 7.08333 15.5933Z" fill="white"/>
<path d="M9.99999 15.5933C9.78332 15.5933 9.56666 15.5016 9.40832 15.3516C9.25832 15.1932 9.16666 14.9766 9.16666 14.7599C9.16666 14.6516 9.19166 14.5433 9.23332 14.4433C9.27499 14.3349 9.33332 14.2433 9.40832 14.1683C9.71666 13.8599 10.2833 13.8599 10.5917 14.1683C10.6667 14.2433 10.725 14.3349 10.7667 14.4433C10.8083 14.5433 10.8333 14.6516 10.8333 14.7599C10.8333 14.9766 10.7417 15.1932 10.5917 15.3516C10.4333 15.5016 10.2167 15.5933 9.99999 15.5933Z" fill="white"/>
<path d="M12.9167 15.5932C12.7 15.5932 12.4833 15.5015 12.325 15.3515C12.25 15.2765 12.1917 15.1849 12.15 15.0765C12.1083 14.9765 12.0833 14.8682 12.0833 14.7599C12.0833 14.6515 12.1083 14.5432 12.15 14.4432C12.1917 14.3349 12.25 14.2432 12.325 14.1682C12.5167 13.9765 12.8083 13.8848 13.075 13.9432C13.1333 13.9515 13.1833 13.9682 13.2333 13.9932C13.2833 14.0098 13.3333 14.0349 13.3833 14.0682C13.425 14.0932 13.4667 14.1349 13.5083 14.1682C13.6583 14.3265 13.75 14.5432 13.75 14.7599C13.75 14.9765 13.6583 15.1932 13.5083 15.3515C13.35 15.5015 13.1333 15.5932 12.9167 15.5932Z" fill="white"/>
<path d="M17.0833 8.79321H2.91666C2.57499 8.79321 2.29166 8.50988 2.29166 8.16821C2.29166 7.82655 2.57499 7.54321 2.91666 7.54321H17.0833C17.425 7.54321 17.7083 7.82655 17.7083 8.16821C17.7083 8.50988 17.425 8.79321 17.0833 8.79321Z" fill="white"/>
<path d="M13.3333 19.5517H6.66667C3.625 19.5517 1.875 17.8017 1.875 14.76V7.67668C1.875 4.63501 3.625 2.88501 6.66667 2.88501H13.3333C16.375 2.88501 18.125 4.63501 18.125 7.67668V14.76C18.125 17.8017 16.375 19.5517 13.3333 19.5517ZM6.66667 4.13501C4.28333 4.13501 3.125 5.29334 3.125 7.67668V14.76C3.125 17.1433 4.28333 18.3017 6.66667 18.3017H13.3333C15.7167 18.3017 16.875 17.1433 16.875 14.76V7.67668C16.875 5.29334 15.7167 4.13501 13.3333 4.13501H6.66667Z" fill="white"/>
</svg>
