<svg width="14" height="11" viewBox="0 0 14 11" fill="none" xmlns="http://www.w3.org/2000/svg">
<path d="M6.4519 10.046C6.51306 10.1348 6.59489 10.2075 6.69036 10.2576C6.78582 10.3078 6.89205 10.334 6.9999 10.334C7.10774 10.334 7.21397 10.3078 7.30944 10.2576C7.4049 10.2075 7.48674 10.1348 7.5479 10.046L13.5479 1.37934C13.6173 1.27937 13.6581 1.16229 13.6657 1.04081C13.6732 0.919323 13.6474 0.798085 13.5909 0.690265C13.5344 0.582446 13.4494 0.492168 13.3453 0.429241C13.2411 0.366315 13.1216 0.333145 12.9999 0.333337H0.999897C0.878459 0.333838 0.759456 0.367434 0.655684 0.430512C0.551912 0.49359 0.467299 0.583762 0.410943 0.691332C0.354587 0.798902 0.32862 0.9198 0.335836 1.04102C0.343052 1.16225 0.383177 1.27921 0.451897 1.37934L6.4519 10.046Z" fill="white"/>
</svg>
