<svg width="21" height="21" viewBox="0 0 21 21" fill="none" xmlns="http://www.w3.org/2000/svg">
<g clip-path="url(#clip0_10436_2188)">
<circle cx="10.25" cy="10.25" r="8.33333" fill="white"/>
<path d="M10.7442 19.6317L10.735 19.6333L10.6758 19.6625L10.6592 19.6658L10.6475 19.6625L10.5883 19.6333C10.5794 19.6306 10.5728 19.6319 10.5683 19.6375L10.565 19.6458L10.5508 20.0025L10.555 20.0192L10.5633 20.03L10.65 20.0917L10.6625 20.095L10.6725 20.0917L10.7592 20.03L10.7692 20.0167L10.7725 20.0025L10.7583 19.6467C10.7561 19.6378 10.7514 19.6328 10.7442 19.6317ZM10.965 19.5375L10.9542 19.5392L10.8 19.6167L10.7917 19.625L10.7892 19.6342L10.8042 19.9925L10.8083 20.0025L10.815 20.0083L10.9825 20.0858C10.9931 20.0886 11.0011 20.0864 11.0067 20.0792L11.01 20.0675L10.9817 19.5558C10.9789 19.5458 10.9733 19.5397 10.965 19.5375ZM10.3692 19.5392C10.3655 19.5369 10.3611 19.5362 10.3569 19.5371C10.3527 19.5381 10.349 19.5406 10.3467 19.5442L10.3417 19.5558L10.3133 20.0675C10.3139 20.0775 10.3186 20.0842 10.3275 20.0875L10.34 20.0858L10.5075 20.0083L10.5158 20.0017L10.5192 19.9925L10.5333 19.6342L10.5308 19.6242L10.5225 19.6158L10.3692 19.5392Z" fill="url(#paint0_linear_10436_2188)"/>
<path d="M10.25 0.25C15.773 0.25 20.25 4.727 20.25 10.25C20.25 15.773 15.773 20.25 10.25 20.25C4.727 20.25 0.25 15.773 0.25 10.25C0.25 4.727 4.727 0.25 10.25 0.25ZM13.785 6.631L8.835 11.581L6.715 9.46C6.62216 9.36709 6.51192 9.29338 6.39059 9.24307C6.26926 9.19276 6.1392 9.16684 6.00785 9.1668C5.74258 9.1667 5.48814 9.27199 5.3005 9.4595C5.11286 9.64701 5.00739 9.90138 5.0073 10.1666C5.0072 10.4319 5.11249 10.6864 5.3 10.874L8.058 13.632C8.16015 13.7342 8.28144 13.8153 8.41493 13.8706C8.54842 13.9259 8.6915 13.9544 8.836 13.9544C8.9805 13.9544 9.12358 13.9259 9.25707 13.8706C9.39056 13.8153 9.51185 13.7342 9.614 13.632L15.2 8.046C15.3876 7.85836 15.4931 7.60386 15.4931 7.3385C15.4931 7.07314 15.3876 6.81864 15.2 6.631C15.0124 6.44336 14.7579 6.33794 14.4925 6.33794C14.2271 6.33794 13.9726 6.44336 13.785 6.631Z" fill="url(#paint1_linear_10436_2188)"/>
</g>
<defs>
<linearGradient id="paint0_linear_10436_2188" x1="11.01" y1="19.8159" x2="10.3133" y2="19.8159" gradientUnits="userSpaceOnUse">
<stop stop-color="#8746EB"/>
<stop offset="1" stop-color="#DC49A6"/>
</linearGradient>
<linearGradient id="paint1_linear_10436_2188" x1="20.25" y1="10.25" x2="0.25" y2="10.25" gradientUnits="userSpaceOnUse">
<stop stop-color="#8746EB"/>
<stop offset="1" stop-color="#DC49A6"/>
</linearGradient>
<clipPath id="clip0_10436_2188">
<rect width="20" height="20" fill="white" transform="translate(0.25 0.25)"/>
</clipPath>
</defs>
</svg>
