<svg width="20" height="20" viewBox="0 0 20 20" fill="none" xmlns="http://www.w3.org/2000/svg">
<path d="M14.1667 17.7082H5.83335C2.79169 17.7082 1.04169 15.9582 1.04169 12.9165V7.08317C1.04169 4.0415 2.79169 2.2915 5.83335 2.2915H14.1667C17.2084 2.2915 18.9584 4.0415 18.9584 7.08317V12.9165C18.9584 15.9582 17.2084 17.7082 14.1667 17.7082ZM5.83335 3.5415C3.45002 3.5415 2.29169 4.69984 2.29169 7.08317V12.9165C2.29169 15.2998 3.45002 16.4582 5.83335 16.4582H14.1667C16.55 16.4582 17.7084 15.2998 17.7084 12.9165V7.08317C17.7084 4.69984 16.55 3.5415 14.1667 3.5415H5.83335Z" fill="white"/>
<path d="M9.99979 10.725C9.29979 10.725 8.59146 10.5083 8.0498 10.0666L5.44146 7.98331C5.17479 7.76664 5.1248 7.37497 5.34146 7.10831C5.55813 6.84164 5.9498 6.79164 6.21647 7.00831L8.82479 9.09164C9.45812 9.59998 10.5331 9.59998 11.1665 9.09164L13.7748 7.00831C14.0415 6.79164 14.4415 6.83331 14.6498 7.10831C14.8665 7.37497 14.8248 7.77498 14.5498 7.98331L11.9415 10.0666C11.4081 10.5083 10.6998 10.725 9.99979 10.725Z" fill="white"/>
</svg>
