<svg width="20" height="21" viewBox="0 0 20 21" fill="none" xmlns="http://www.w3.org/2000/svg">
<path d="M6.66666 5.38489C6.32499 5.38489 6.04166 5.10155 6.04166 4.75989V2.25989C6.04166 1.91822 6.32499 1.63489 6.66666 1.63489C7.00832 1.63489 7.29166 1.91822 7.29166 2.25989V4.75989C7.29166 5.10155 7.00832 5.38489 6.66666 5.38489Z" fill="white"/>
<path d="M13.3333 5.38489C12.9917 5.38489 12.7083 5.10155 12.7083 4.75989V2.25989C12.7083 1.91822 12.9917 1.63489 13.3333 1.63489C13.675 1.63489 13.9583 1.91822 13.9583 2.25989V4.75989C13.9583 5.10155 13.675 5.38489 13.3333 5.38489Z" fill="white"/>
<path d="M7.08333 12.6767C6.975 12.6767 6.86667 12.6517 6.76667 12.61C6.65833 12.5684 6.575 12.51 6.49167 12.435C6.34167 12.2767 6.25 12.0684 6.25 11.8434C6.25 11.735 6.275 11.6267 6.31667 11.5267C6.35833 11.4267 6.41667 11.335 6.49167 11.2517C6.575 11.1767 6.65833 11.1183 6.76667 11.0767C7.06667 10.9517 7.44167 11.0184 7.675 11.2517C7.825 11.41 7.91667 11.6267 7.91667 11.8434C7.91667 11.8934 7.90833 11.9517 7.9 12.01C7.89167 12.06 7.875 12.11 7.85 12.16C7.83333 12.21 7.80833 12.26 7.775 12.31C7.75 12.3517 7.70833 12.3934 7.675 12.435C7.51667 12.585 7.3 12.6767 7.08333 12.6767Z" fill="white"/>
<path d="M9.99999 12.6766C9.89166 12.6766 9.78332 12.6516 9.68332 12.61C9.57499 12.5683 9.49166 12.5099 9.40832 12.4349C9.25832 12.2766 9.16666 12.0683 9.16666 11.8433C9.16666 11.7349 9.19166 11.6266 9.23332 11.5266C9.27499 11.4266 9.33332 11.335 9.40832 11.2516C9.49166 11.1766 9.57499 11.1183 9.68332 11.0766C9.98332 10.9433 10.3583 11.0183 10.5917 11.2516C10.7417 11.41 10.8333 11.6266 10.8333 11.8433C10.8333 11.8933 10.825 11.9516 10.8167 12.01C10.8083 12.06 10.7917 12.1099 10.7667 12.1599C10.75 12.2099 10.725 12.2599 10.6917 12.3099C10.6667 12.3516 10.625 12.3933 10.5917 12.4349C10.4333 12.5849 10.2167 12.6766 9.99999 12.6766Z" fill="white"/>
<path d="M12.9167 12.6766C12.8083 12.6766 12.7 12.6516 12.6 12.61C12.4917 12.5683 12.4083 12.5099 12.325 12.4349C12.2917 12.3933 12.2583 12.3516 12.225 12.3099C12.1917 12.2599 12.1667 12.2099 12.15 12.1599C12.125 12.1099 12.1083 12.06 12.1 12.01C12.0917 11.9516 12.0833 11.8933 12.0833 11.8433C12.0833 11.6266 12.175 11.41 12.325 11.2516C12.4083 11.1766 12.4917 11.1183 12.6 11.0766C12.9083 10.9433 13.275 11.0183 13.5083 11.2516C13.6583 11.41 13.75 11.6266 13.75 11.8433C13.75 11.8933 13.7417 11.9516 13.7333 12.01C13.725 12.06 13.7083 12.1099 13.6833 12.1599C13.6667 12.2099 13.6417 12.2599 13.6083 12.3099C13.5833 12.3516 13.5417 12.3933 13.5083 12.4349C13.35 12.5849 13.1333 12.6766 12.9167 12.6766Z" fill="white"/>
<path d="M7.08333 15.5933C6.975 15.5933 6.86667 15.5683 6.76667 15.5266C6.66667 15.4849 6.575 15.4266 6.49167 15.3516C6.34167 15.1932 6.25 14.9766 6.25 14.7599C6.25 14.6516 6.275 14.5433 6.31667 14.4433C6.35833 14.3349 6.41667 14.2433 6.49167 14.1683C6.8 13.8599 7.36667 13.8599 7.675 14.1683C7.825 14.3266 7.91667 14.5433 7.91667 14.7599C7.91667 14.9766 7.825 15.1932 7.675 15.3516C7.51667 15.5016 7.3 15.5933 7.08333 15.5933Z" fill="white"/>
<path d="M9.99999 15.5933C9.78332 15.5933 9.56666 15.5016 9.40832 15.3516C9.25832 15.1932 9.16666 14.9766 9.16666 14.7599C9.16666 14.6516 9.19166 14.5433 9.23332 14.4433C9.27499 14.3349 9.33332 14.2433 9.40832 14.1683C9.71666 13.8599 10.2833 13.8599 10.5917 14.1683C10.6667 14.2433 10.725 14.3349 10.7667 14.4433C10.8083 14.5433 10.8333 14.6516 10.8333 14.7599C10.8333 14.9766 10.7417 15.1932 10.5917 15.3516C10.4333 15.5016 10.2167 15.5933 9.99999 15.5933Z" fill="white"/>
<path d="M12.9167 15.5933C12.7 15.5933 12.4833 15.5016 12.325 15.3516C12.25 15.2766 12.1917 15.185 12.15 15.0766C12.1083 14.9766 12.0833 14.8683 12.0833 14.76C12.0833 14.6516 12.1083 14.5433 12.15 14.4433C12.1917 14.335 12.25 14.2433 12.325 14.1683C12.5167 13.9767 12.8083 13.885 13.075 13.9433C13.1333 13.9516 13.1833 13.9683 13.2333 13.9933C13.2833 14.01 13.3333 14.035 13.3833 14.0683C13.425 14.0933 13.4667 14.135 13.5083 14.1683C13.6583 14.3267 13.75 14.5433 13.75 14.76C13.75 14.9766 13.6583 15.1933 13.5083 15.3516C13.35 15.5016 13.1333 15.5933 12.9167 15.5933Z" fill="white"/>
<path d="M17.0833 8.79321H2.91666C2.57499 8.79321 2.29166 8.50988 2.29166 8.16821C2.29166 7.82655 2.57499 7.54321 2.91666 7.54321H17.0833C17.425 7.54321 17.7083 7.82655 17.7083 8.16821C17.7083 8.50988 17.425 8.79321 17.0833 8.79321Z" fill="white"/>
<path d="M13.3333 19.5516H6.66667C3.625 19.5516 1.875 17.8016 1.875 14.7599V7.67655C1.875 4.63489 3.625 2.88489 6.66667 2.88489H13.3333C16.375 2.88489 18.125 4.63489 18.125 7.67655V14.7599C18.125 17.8016 16.375 19.5516 13.3333 19.5516ZM6.66667 4.13489C4.28333 4.13489 3.125 5.29322 3.125 7.67655V14.7599C3.125 17.1432 4.28333 18.3016 6.66667 18.3016H13.3333C15.7167 18.3016 16.875 17.1432 16.875 14.7599V7.67655C16.875 5.29322 15.7167 4.13489 13.3333 4.13489H6.66667Z" fill="white"/>
</svg>
