<svg width="21" height="21" viewBox="0 0 21 21" fill="none" xmlns="http://www.w3.org/2000/svg">
<g clip-path="url(#clip0_10436_2190)">
<circle cx="10.25" cy="9.75" r="6.5" fill="white"/>
<path d="M10.75 0.25C16.273 0.25 20.75 4.727 20.75 10.25C20.75 15.773 16.273 20.25 10.75 20.25C5.227 20.25 0.75 15.773 0.75 10.25C0.75 4.727 5.227 0.25 10.75 0.25ZM8.629 6.714C8.44946 6.53275 8.20743 6.42697 7.95245 6.41832C7.69748 6.40967 7.44883 6.4988 7.25742 6.66747C7.06601 6.83613 6.9463 7.07159 6.9228 7.32562C6.89929 7.57966 6.97378 7.83308 7.131 8.034L7.215 8.129L9.335 10.249L7.215 12.371C7.03375 12.5505 6.92797 12.7926 6.91932 13.0475C6.91067 13.3025 6.9998 13.5512 7.16847 13.7426C7.33713 13.934 7.57258 14.0537 7.82662 14.0772C8.08066 14.1007 8.33408 14.0262 8.535 13.869L8.629 13.786L10.75 11.664L12.871 13.786C13.0505 13.9673 13.2926 14.073 13.5475 14.0817C13.8025 14.0903 14.0512 14.0012 14.2426 13.8325C14.434 13.6639 14.5537 13.4284 14.5772 13.1744C14.6007 12.9203 14.5262 12.6669 14.369 12.466L14.286 12.371L12.164 10.25L14.286 8.129C14.4673 7.94946 14.573 7.70743 14.5817 7.45245C14.5903 7.19748 14.5012 6.94883 14.3325 6.75742C14.1639 6.56601 13.9284 6.4463 13.6744 6.4228C13.4203 6.39929 13.1669 6.47378 12.966 6.631L12.871 6.714L10.75 8.836L8.629 6.714Z" fill="#545357"/>
</g>
<defs>
<clipPath id="clip0_10436_2190">
<rect width="20" height="20" fill="white" transform="translate(0.75 0.25)"/>
</clipPath>
</defs>
</svg>
