<svg width="71" height="71" viewBox="0 0 71 71" fill="none" xmlns="http://www.w3.org/2000/svg">
<rect width="70.9416" height="70.9417" rx="35.4708" fill="white" fill-opacity="0.2"/>
<path d="M35.4706 7.63501C29.9652 7.63501 24.5834 9.26755 20.0059 12.3262C15.4283 15.3848 11.8605 19.7322 9.75366 24.8185C7.64683 29.9049 7.09558 35.5017 8.16964 40.9014C9.24369 46.301 11.8948 51.2608 15.7877 55.1538C19.6806 59.0467 24.6405 61.6978 30.0401 62.7718C35.4397 63.8459 41.0366 63.2946 46.1229 61.1878C51.2093 59.081 55.5566 55.5132 58.6153 50.9356C61.6739 46.358 63.3065 40.9763 63.3065 35.4709C63.3065 31.8154 62.5865 28.1957 61.1876 24.8185C59.7887 21.4413 57.7383 18.3727 55.1535 15.7879C52.5687 13.2031 49.5001 11.1528 46.1229 9.75389C42.7457 8.35501 39.1261 7.63501 35.4706 7.63501ZM29.9035 47.997V22.9447L46.605 35.4709L29.9035 47.997Z" fill="white"/>
</svg>
